<?xml version="1.0" encoding="utf-8"?>
<!-- Generator: Adobe Illustrator 16.0.0, SVG Export Plug-In . SVG Version: 6.00 Build 0)  -->
<!DOCTYPE svg PUBLIC "-//W3C//DTD SVG 1.1//EN" "http://www.w3.org/Graphics/SVG/1.1/DTD/svg11.dtd">
<svg version="1.1" id="Layer_1" xmlns="http://www.w3.org/2000/svg" xmlns:xlink="http://www.w3.org/1999/xlink" x="0px" y="0px"
	 width="302.831px" height="64.149px" viewBox="0 0 302.831 64.149" enable-background="new 0 0 302.831 64.149"
	 xml:space="preserve">
<g>
	<defs>
		<rect id="SVGID_1_" x="-1013.642" y="-185.982" width="595.276" height="841.89"/>
	</defs>
	<clipPath id="SVGID_2_">
		<use xlink:href="#SVGID_1_"  overflow="visible"/>
	</clipPath>
</g>
<g>
	<defs>
		<path id="SVGID_3_" d="M72.953,31.337L72.953,31.337c0,0,0,0,0-0.001V31.337z M297.276,31.337L297.276,31.337v-0.001
			C297.276,31.337,297.276,31.337,297.276,31.337 M76.415,30.567c-1.912,0-3.46,0.344-3.461,0.77
			c0.001,0.424,1.55,0.769,3.461,0.769h217.398c1.912,0,3.462-0.344,3.463-0.769c-0.001-0.426-1.551-0.77-3.463-0.77H76.415z"/>
	</defs>
	<clipPath id="SVGID_4_">
		<use xlink:href="#SVGID_3_"  overflow="visible"/>
	</clipPath>
	
		<linearGradient id="SVGID_5_" gradientUnits="userSpaceOnUse" x1="-123.374" y1="586.6797" x2="-122.6736" y2="586.6797" gradientTransform="matrix(0 2.3359 -10.9954 0 6635.9312 318.7067)">
		<stop  offset="0" style="stop-color:#F8F9FA"/>
		<stop  offset="0.2748" style="stop-color:#AEAEB3"/>
		<stop  offset="0.6221" style="stop-color:#E6E6E5"/>
		<stop  offset="1" style="stop-color:#9C9DA1"/>
	</linearGradient>
	<rect x="72.953" y="30.567" clip-path="url(#SVGID_4_)" fill="url(#SVGID_5_)" width="224.323" height="1.539"/>
</g>
<g>
	<defs>
		<path id="SVGID_6_" d="M3.677,14.083v10.765l8.88,5.149l0.019-14.302l19.743,0.019c8.491,0.166,12.562,5.085,13.522,6.75
			l12.123-0.091l-0.019-5.189C57.798,11.221,56.041,6.315,47.769,5.68c0,0-26.064,0.074-34.95,0c-0.037,0-0.075,0-0.111,0
			C3.933,5.68,3.677,14.083,3.677,14.083"/>
	</defs>
	<clipPath id="SVGID_7_">
		<use xlink:href="#SVGID_6_"  overflow="visible"/>
	</clipPath>
	
		<linearGradient id="SVGID_8_" gradientUnits="userSpaceOnUse" x1="-141.3267" y1="585.8613" x2="-140.6255" y2="585.8613" gradientTransform="matrix(58.3744 -40.8524 40.8524 58.3744 -15676.6191 -39938.7266)">
		<stop  offset="0" style="stop-color:#FFFFFF"/>
		<stop  offset="0.292" style="stop-color:#808080"/>
		<stop  offset="0.524" style="stop-color:#D6D6D6"/>
		<stop  offset="0.8555" style="stop-color:#D6D5D5"/>
		<stop  offset="1" style="stop-color:#808080"/>
	</linearGradient>
	<polygon clip-path="url(#SVGID_7_)" fill="url(#SVGID_8_)" points="21.524,55.498 69.387,22.002 40.117,-19.822 -7.746,13.674 	"/>
</g>
<g>
	<defs>
		<path id="SVGID_9_" d="M25.281,27.253v11.189h5.471c2.344-0.079,3.924-1.189,4.548-2.843c0.184-0.415,2.48-8.174-4.815-8.346
			H25.281z"/>
	</defs>
	<clipPath id="SVGID_10_">
		<use xlink:href="#SVGID_9_"  overflow="visible"/>
	</clipPath>
	
		<linearGradient id="SVGID_11_" gradientUnits="userSpaceOnUse" x1="-141.3267" y1="585.7871" x2="-140.6243" y2="585.7871" gradientTransform="matrix(58.3744 -40.8524 40.8524 58.3744 -15666.3066 -39923.9453)">
		<stop  offset="0" style="stop-color:#FFFFFF"/>
		<stop  offset="0.292" style="stop-color:#808080"/>
		<stop  offset="0.524" style="stop-color:#D6D6D6"/>
		<stop  offset="0.8555" style="stop-color:#D6D5D5"/>
		<stop  offset="1" style="stop-color:#808080"/>
	</linearGradient>
	<polygon clip-path="url(#SVGID_10_)" fill="url(#SVGID_11_)" points="29.39,44.313 43.037,34.763 33.671,21.381 20.024,30.931 	"/>
</g>
<g>
	<defs>
		<path id="SVGID_12_" d="M31.708,49.85l-6.096-0.025v10.309c0,0.021,14.188,0.148,23.075-0.085
			c8.882-0.231,9.165-8.438,9.165-8.438V40.844l-9.345-5.393V35.45C47.68,41.943,43,49.949,31.708,49.85"/>
	</defs>
	<clipPath id="SVGID_13_">
		<use xlink:href="#SVGID_12_"  overflow="visible"/>
	</clipPath>
	
		<radialGradient id="SVGID_14_" cx="-140.4438" cy="586.3574" r="0.7015" gradientTransform="matrix(38.6532 0 0 23.2043 5459.3369 -13554.2705)" gradientUnits="userSpaceOnUse">
		<stop  offset="0" style="stop-color:#88898E"/>
		<stop  offset="1" style="stop-color:#333333"/>
	</radialGradient>
	<rect x="25.612" y="35.45" clip-path="url(#SVGID_13_)" fill="url(#SVGID_14_)" width="32.24" height="24.832"/>
</g>
<g>
	<defs>
		<path id="SVGID_15_" d="M3.688,43.063l-0.03,6.217c0.877,5.954,5.055,8.136,8.911,10.685V43.063H3.688z"/>
	</defs>
	<clipPath id="SVGID_16_">
		<use xlink:href="#SVGID_15_"  overflow="visible"/>
	</clipPath>
	
		<radialGradient id="SVGID_17_" cx="-140.4434" cy="586.3574" r="0.701" gradientTransform="matrix(38.6519 0 0 23.2035 5459.1499 -13553.8066)" gradientUnits="userSpaceOnUse">
		<stop  offset="0" style="stop-color:#88898E"/>
		<stop  offset="1" style="stop-color:#333333"/>
	</radialGradient>
	<rect x="3.658" y="43.063" clip-path="url(#SVGID_16_)" fill="url(#SVGID_17_)" width="8.911" height="16.902"/>
</g>
<path fill="#FFFFFF" d="M73.534,8.434V8.285h4.174c1.483,0,2.561,0.166,3.229,0.497c0.676,0.331,1.166,0.745,1.471,1.242
	c0.311,0.49,0.467,1.139,0.467,1.947c0,1.239-0.427,2.169-1.281,2.792c-0.855,0.623-2.014,0.922-3.478,0.895v-0.138
	c0.928,0,1.679-0.285,2.255-0.855c0.583-0.57,0.875-1.318,0.875-2.246c0-0.722-0.143-1.361-0.428-1.917
	c-0.278-0.563-0.672-0.991-1.182-1.282c-0.51-0.292-1.288-0.438-2.334-0.438h-1.043v12.53c0,0.708,0.079,1.132,0.239,1.271
	c0.158,0.132,0.459,0.199,0.903,0.199v0.138h-3.865v-0.138c0.689,0,1.034-0.314,1.034-0.945V9.716c0-0.518-0.066-0.858-0.198-1.024
	C74.236,8.52,73.958,8.434,73.534,8.434z"/>
<path fill="none" stroke="#FFFFFF" stroke-width="0.908" stroke-miterlimit="10.248" d="M73.534,8.434V8.285h4.174
	c1.483,0,2.561,0.166,3.229,0.497c0.676,0.331,1.166,0.745,1.471,1.242c0.311,0.49,0.467,1.139,0.467,1.947
	c0,1.239-0.427,2.169-1.281,2.792c-0.855,0.623-2.014,0.922-3.478,0.895v-0.138c0.928,0,1.679-0.285,2.255-0.855
	c0.583-0.57,0.875-1.318,0.875-2.246c0-0.722-0.143-1.361-0.428-1.917c-0.278-0.563-0.672-0.991-1.182-1.282
	c-0.51-0.292-1.288-0.438-2.334-0.438h-1.043v12.53c0,0.708,0.079,1.132,0.239,1.271c0.158,0.132,0.459,0.199,0.903,0.199v0.138
	h-3.865v-0.138c0.689,0,1.034-0.314,1.034-0.945V9.716c0-0.518-0.066-0.858-0.198-1.024C74.236,8.52,73.958,8.434,73.534,8.434z"/>
<path fill="#FFFFFF" d="M86.207,22.92v-0.138c0.457,0,0.751-0.086,0.884-0.259c0.14-0.172,0.209-0.467,0.209-0.884V9.657
	c0-0.424-0.053-0.729-0.159-0.915c-0.105-0.192-0.423-0.295-0.954-0.308V8.285h3.924v0.149c-0.364,0-0.619,0.046-0.765,0.139
	C89.2,8.666,89.104,8.775,89.058,8.9c-0.046,0.126-0.069,0.411-0.069,0.854v10.274c0,0.881,0.211,1.503,0.636,1.869
	c0.423,0.357,1.149,0.537,2.176,0.537h1.789c0.86,0,1.491-0.212,1.888-0.637c0.403-0.423,0.629-1.222,0.676-2.395h0.139v3.517
	H86.207z"/>
<path fill="none" stroke="#FFFFFF" stroke-width="0.908" stroke-miterlimit="10.248" d="M86.207,22.92v-0.138
	c0.457,0,0.751-0.086,0.884-0.259c0.14-0.172,0.209-0.467,0.209-0.884V9.657c0-0.424-0.053-0.729-0.159-0.915
	c-0.105-0.192-0.423-0.295-0.954-0.308V8.285h3.924v0.149c-0.364,0-0.619,0.046-0.765,0.139C89.2,8.666,89.104,8.775,89.058,8.9
	c-0.046,0.126-0.069,0.411-0.069,0.854v10.274c0,0.881,0.211,1.503,0.636,1.869c0.423,0.357,1.149,0.537,2.176,0.537h1.789
	c0.86,0,1.491-0.212,1.888-0.637c0.403-0.423,0.629-1.222,0.676-2.395h0.139v3.517H86.207z"/>
<path fill="#FFFFFF" d="M107.931,16.184h-4.272l-2.216,5.535c-0.152,0.397-0.228,0.642-0.228,0.735c0,0.218,0.162,0.327,0.486,0.327
	v0.14h-2.176v-0.14c0.292,0,0.537-0.068,0.735-0.208c0.2-0.146,0.418-0.517,0.656-1.113l5.306-13.395h0.249
	c1.824,4.199,3.943,10.329,5.624,13.881c0.271,0.556,0.682,0.834,1.231,0.834v0.14h-3.418v-0.14c0.312,0,0.467-0.121,0.467-0.367
	c0-0.165-0.076-0.43-0.229-0.795c0,0-0.065-0.15-0.1-0.228L107.931,16.184z M103.797,15.777h3.955l-1.978-4.988L103.797,15.777z"/>
<path fill="none" stroke="#FFFFFF" stroke-width="0.908" stroke-miterlimit="10.248" d="M107.931,16.184h-4.272l-2.216,5.535
	c-0.152,0.397-0.228,0.642-0.228,0.735c0,0.218,0.162,0.327,0.486,0.327v0.14h-2.176v-0.14c0.292,0,0.537-0.068,0.735-0.208
	c0.2-0.146,0.418-0.517,0.656-1.113l5.306-13.395h0.249c1.824,4.199,3.943,10.329,5.624,13.881c0.271,0.556,0.682,0.834,1.231,0.834
	v0.14h-3.418v-0.14c0.312,0,0.467-0.121,0.467-0.367c0-0.165-0.076-0.43-0.229-0.795c0,0-0.065-0.15-0.1-0.228L107.931,16.184z
	 M103.797,15.777h3.955l-1.978-4.988L103.797,15.777z"/>
<path fill="#FFFFFF" d="M126.386,7.777l-0.695,1.77h-0.14c0.027-0.106,0.041-0.249,0.041-0.428c0-0.152-0.056-0.248-0.169-0.288
	c-0.105-0.046-0.278-0.069-0.516-0.069h-3.826v12.529c0,0.517,0.04,0.871,0.12,1.064c0.086,0.185,0.199,0.304,0.337,0.358
	c0.146,0.046,0.378,0.069,0.697,0.069v0.138h-3.966v-0.138c0.497-0.034,0.809-0.129,0.935-0.289c0.125-0.159,0.188-0.49,0.188-0.994
	V8.762h-3.667c-0.371,0-0.612,0.023-0.726,0.069c-0.112,0.041-0.169,0.146-0.169,0.319c0,0.086,0.027,0.218,0.08,0.397h-0.139
	l-0.696-1.77h0.14c0.119,0.239,0.234,0.385,0.348,0.438c0.12,0.046,0.371,0.069,0.755,0.069h9.728c0.384,0,0.659-0.023,0.825-0.069
	c0.172-0.053,0.298-0.199,0.378-0.438H126.386z"/>
<path fill="none" stroke="#FFFFFF" stroke-width="0.908" stroke-miterlimit="10.248" d="M126.386,7.777l-0.695,1.77h-0.14
	c0.027-0.106,0.041-0.249,0.041-0.428c0-0.152-0.056-0.248-0.169-0.288c-0.105-0.046-0.278-0.069-0.516-0.069h-3.826v12.529
	c0,0.517,0.04,0.871,0.12,1.064c0.086,0.185,0.199,0.304,0.337,0.358c0.146,0.046,0.378,0.069,0.697,0.069v0.138h-3.966v-0.138
	c0.497-0.034,0.809-0.129,0.935-0.289c0.125-0.159,0.188-0.49,0.188-0.994V8.762h-3.667c-0.371,0-0.612,0.023-0.726,0.069
	c-0.112,0.041-0.169,0.146-0.169,0.319c0,0.086,0.027,0.218,0.08,0.397h-0.139l-0.696-1.77h0.14
	c0.119,0.239,0.234,0.385,0.348,0.438c0.12,0.046,0.371,0.069,0.755,0.069h9.728c0.384,0,0.659-0.023,0.825-0.069
	c0.172-0.053,0.298-0.199,0.378-0.438H126.386z"/>
<path fill="#FFFFFF" d="M133.405,8.285v0.15c-0.193-0.021-0.407,0.01-0.646,0.088c-0.231,0.08-0.371,0.196-0.418,0.348
	c-0.04,0.153-0.06,0.514-0.06,1.083v11.237c0,0.61,0.023,0.984,0.07,1.124c0.052,0.132,0.148,0.246,0.288,0.338
	c0.145,0.085,0.4,0.128,0.765,0.128v0.139H129.5v-0.139c0.49,0,0.795-0.092,0.914-0.278c0.119-0.191,0.179-0.622,0.179-1.291V10.083
	c0-0.695-0.066-1.149-0.199-1.361c-0.133-0.219-0.431-0.315-0.894-0.288v-0.15H133.405z"/>
<path fill="none" stroke="#FFFFFF" stroke-width="0.908" stroke-miterlimit="10.248" d="M133.405,8.285v0.15
	c-0.193-0.021-0.407,0.01-0.646,0.088c-0.231,0.08-0.371,0.196-0.418,0.348c-0.04,0.153-0.06,0.514-0.06,1.083v11.237
	c0,0.61,0.023,0.984,0.07,1.124c0.052,0.132,0.148,0.246,0.288,0.338c0.145,0.085,0.4,0.128,0.765,0.128v0.139H129.5v-0.139
	c0.49,0,0.795-0.092,0.914-0.278c0.119-0.191,0.179-0.622,0.179-1.291V10.083c0-0.695-0.066-1.149-0.199-1.361
	c-0.133-0.219-0.431-0.315-0.894-0.288v-0.15H133.405z"/>
<path fill="#FFFFFF" d="M149.326,8.285h2.832v0.15c-0.431,0.013-0.729,0.105-0.895,0.278c-0.164,0.165-0.248,0.519-0.248,1.063V23.1
	L139.34,10.669V21.5c0,0.345,0.026,0.6,0.08,0.766s0.129,0.278,0.229,0.338c0.1,0.06,0.348,0.119,0.745,0.178v0.139h-2.812v-0.139
	c0.503,0,0.814-0.088,0.934-0.268c0.125-0.179,0.189-0.606,0.189-1.282v-9.906c0-0.868-0.123-1.577-0.369-2.126
	c-0.238-0.55-0.794-0.805-1.668-0.765v-0.15h2.752l10.97,11.685V9.637c0-0.558-0.099-0.895-0.299-1.014
	c-0.198-0.127-0.453-0.188-0.765-0.188V8.285z"/>
<path fill="none" stroke="#FFFFFF" stroke-width="0.908" stroke-miterlimit="10.248" d="M149.326,8.285h2.832v0.15
	c-0.431,0.013-0.729,0.105-0.895,0.278c-0.164,0.165-0.248,0.519-0.248,1.063V23.1L139.34,10.669V21.5c0,0.345,0.026,0.6,0.08,0.766
	s0.129,0.278,0.229,0.338c0.1,0.06,0.348,0.119,0.745,0.178v0.139h-2.812v-0.139c0.503,0,0.814-0.088,0.934-0.268
	c0.125-0.179,0.189-0.606,0.189-1.282v-9.906c0-0.868-0.123-1.577-0.369-2.126c-0.238-0.55-0.794-0.805-1.668-0.765v-0.15h2.752
	l10.97,11.685V9.637c0-0.558-0.099-0.895-0.299-1.014c-0.198-0.127-0.453-0.188-0.765-0.188V8.285z"/>
<path fill="#FFFFFF" d="M169.709,22.92h-2.762v-2.255c-1.412,1.57-3.095,2.355-5.049,2.355c-1.451,0-2.604-0.407-3.458-1.223
	c-0.848-0.814-1.271-1.941-1.271-3.378V9.655c0-0.529-0.063-0.864-0.188-1.003c-0.128-0.146-0.422-0.218-0.886-0.218V8.285h3.885
	v0.149c-0.411,0-0.702,0.066-0.874,0.199c-0.166,0.125-0.248,0.43-0.248,0.914v8.038c0,1.683,0.395,2.885,1.182,3.607
	c0.789,0.715,1.687,1.074,2.692,1.074c1.584,0,2.989-0.712,4.215-2.137v-9.907c0-0.868-0.078-1.381-0.229-1.54
	c-0.152-0.166-0.391-0.248-0.716-0.248h-0.139V8.285h3.846v0.149c-0.478,0.026-0.778,0.105-0.904,0.238
	c-0.12,0.133-0.18,0.385-0.18,0.755v11.924c0,0.47,0.023,0.777,0.069,0.924c0.046,0.145,0.14,0.267,0.277,0.367
	c0.146,0.092,0.394,0.139,0.737,0.139V22.92z"/>
<path fill="none" stroke="#FFFFFF" stroke-width="0.908" stroke-miterlimit="10.248" d="M169.709,22.92h-2.762v-2.255
	c-1.412,1.57-3.095,2.355-5.049,2.355c-1.451,0-2.604-0.407-3.458-1.223c-0.848-0.814-1.271-1.941-1.271-3.378V9.655
	c0-0.529-0.063-0.864-0.188-1.003c-0.128-0.146-0.422-0.218-0.886-0.218V8.285h3.885v0.149c-0.411,0-0.702,0.066-0.874,0.199
	c-0.166,0.125-0.248,0.43-0.248,0.914v8.038c0,1.683,0.395,2.885,1.182,3.607c0.789,0.715,1.687,1.074,2.692,1.074
	c1.584,0,2.989-0.712,4.215-2.137v-9.907c0-0.868-0.078-1.381-0.229-1.54c-0.152-0.166-0.391-0.248-0.716-0.248h-0.139V8.285h3.846
	v0.149c-0.478,0.026-0.778,0.105-0.904,0.238c-0.12,0.133-0.18,0.385-0.18,0.755v11.924c0,0.47,0.023,0.777,0.069,0.924
	c0.046,0.145,0.14,0.267,0.277,0.367c0.146,0.092,0.394,0.139,0.737,0.139V22.92z"/>
<path fill="#FFFFFF" d="M187.162,8.285h2.305v0.15c-0.775,0.039-1.163,0.446-1.163,1.221c0,0.166,0.019,0.394,0.059,0.686
	l1.531,11.089c0.093,0.556,0.195,0.914,0.309,1.072c0.118,0.153,0.359,0.246,0.725,0.278v0.139h-3.289v-0.139
	c0.432,0.014,0.646-0.197,0.646-0.636c0-0.1-0.021-0.294-0.059-0.585l-1.491-10.752l-5.247,12.113h-0.099l-5.277-12.093
	l-1.479,10.811c-0.026,0.166-0.04,0.354-0.04,0.567c0,0.383,0.222,0.575,0.665,0.575v0.139h-2.234v-0.139
	c0.337,0,0.553-0.043,0.646-0.128c0.099-0.087,0.176-0.22,0.229-0.398c0.053-0.186,0.093-0.391,0.12-0.616l1.669-11.824
	c-0.272-0.656-0.544-1.05-0.815-1.182c-0.271-0.133-0.533-0.198-0.784-0.198v-0.15h2.762l5.147,11.973L187.162,8.285z"/>
<path fill="none" stroke="#FFFFFF" stroke-width="0.908" stroke-miterlimit="10.248" d="M187.162,8.285h2.305v0.15
	c-0.775,0.039-1.163,0.446-1.163,1.221c0,0.166,0.019,0.394,0.059,0.686l1.531,11.089c0.093,0.556,0.195,0.914,0.309,1.072
	c0.118,0.153,0.359,0.246,0.725,0.278v0.139h-3.289v-0.139c0.432,0.014,0.646-0.197,0.646-0.636c0-0.1-0.021-0.294-0.059-0.585
	l-1.491-10.752l-5.247,12.113h-0.099l-5.277-12.093l-1.479,10.811c-0.026,0.166-0.04,0.354-0.04,0.567
	c0,0.383,0.222,0.575,0.665,0.575v0.139h-2.234v-0.139c0.337,0,0.553-0.043,0.646-0.128c0.099-0.087,0.176-0.22,0.229-0.398
	c0.053-0.186,0.093-0.391,0.12-0.616l1.669-11.824c-0.272-0.656-0.544-1.05-0.815-1.182c-0.271-0.133-0.533-0.198-0.784-0.198v-0.15
	h2.762l5.147,11.973L187.162,8.285z"/>
<path fill="#FFFFFF" d="M209.594,8.474l0.694,1.828l-0.118,0.02c0,0-0.186-0.202-0.557-0.585c-0.364-0.384-0.784-0.679-1.263-0.885
	c-0.47-0.212-1.003-0.318-1.6-0.318c-0.999,0-1.794,0.288-2.385,0.864c-0.582,0.57-0.874,1.259-0.874,2.066
	c0,0.537,0.136,1.008,0.408,1.412c0.278,0.397,0.854,0.768,1.729,1.112c1.504,0.503,2.529,0.884,3.08,1.143
	c0.557,0.251,1.091,0.683,1.6,1.292c0.518,0.609,0.775,1.391,0.775,2.345c0,0.397-0.046,0.778-0.139,1.143
	c-0.094,0.358-0.242,0.705-0.447,1.044c-0.205,0.33-0.453,0.636-0.746,0.914c-0.285,0.271-0.576,0.48-0.874,0.625
	c-0.298,0.14-0.769,0.245-1.41,0.318c-0.644,0.074-1.066,0.109-1.272,0.109h-3.904v-4.252h0.148
	c0.014,1.412,0.345,2.395,0.993,2.952c0.649,0.556,1.66,0.834,3.03,0.834c1.246,0,2.19-0.295,2.832-0.884
	c0.649-0.589,0.974-1.298,0.974-2.126c0-0.503-0.112-0.931-0.337-1.282c-0.225-0.357-0.54-0.668-0.944-0.934
	c-0.403-0.271-1.17-0.599-2.295-0.983c-1.119-0.392-1.908-0.732-2.365-1.024c-0.45-0.297-0.828-0.742-1.134-1.331
	c-0.304-0.597-0.457-1.202-0.457-1.818c0-1.133,0.389-2.083,1.164-2.852c0.781-0.768,1.806-1.153,3.068-1.153
	c0.492,0,1.021,0.057,1.591,0.169C208.921,8.298,209.283,8.397,209.594,8.474z"/>
<path fill="none" stroke="#FFFFFF" stroke-width="0.908" stroke-miterlimit="10.248" d="M209.594,8.474l0.694,1.828l-0.118,0.02
	c0,0-0.186-0.202-0.557-0.585c-0.364-0.384-0.784-0.679-1.263-0.885c-0.47-0.212-1.003-0.318-1.6-0.318
	c-0.999,0-1.794,0.288-2.385,0.864c-0.582,0.57-0.874,1.259-0.874,2.066c0,0.537,0.136,1.008,0.408,1.412
	c0.278,0.397,0.854,0.768,1.729,1.112c1.504,0.503,2.529,0.884,3.08,1.143c0.557,0.251,1.091,0.683,1.6,1.292
	c0.518,0.609,0.775,1.391,0.775,2.345c0,0.397-0.046,0.778-0.139,1.143c-0.094,0.358-0.242,0.705-0.447,1.044
	c-0.205,0.33-0.453,0.636-0.746,0.914c-0.285,0.271-0.576,0.48-0.874,0.625c-0.298,0.14-0.769,0.245-1.41,0.318
	c-0.644,0.074-1.066,0.109-1.272,0.109h-3.904v-4.252h0.148c0.014,1.412,0.345,2.395,0.993,2.952c0.649,0.556,1.66,0.834,3.03,0.834
	c1.246,0,2.19-0.295,2.832-0.884c0.649-0.589,0.974-1.298,0.974-2.126c0-0.503-0.112-0.931-0.337-1.282
	c-0.225-0.357-0.54-0.668-0.944-0.934c-0.403-0.271-1.17-0.599-2.295-0.983c-1.119-0.392-1.908-0.732-2.365-1.024
	c-0.45-0.297-0.828-0.742-1.134-1.331c-0.304-0.597-0.457-1.202-0.457-1.818c0-1.133,0.389-2.083,1.164-2.852
	c0.781-0.768,1.806-1.153,3.068-1.153c0.492,0,1.021,0.057,1.591,0.169C208.921,8.298,209.283,8.397,209.594,8.474z"/>
<path fill="#FFFFFF" d="M223.776,22.882c0.008,0.02,0.108,0.092,0.299,0.218l1.541,1.093c0.84,0.596,1.619,1.081,2.333,1.451
	c0.724,0.376,1.44,0.668,2.157,0.874c0.715,0.206,1.428,0.308,2.137,0.308c0.271,0,0.652-0.033,1.143-0.099l0.021,0.119
	c-0.419,0.199-0.915,0.365-1.492,0.497c-0.575,0.131-1.01,0.199-1.3,0.199c-1.062,0-2.448-0.392-4.164-1.174
	c-1.716-0.78-3.333-1.854-4.849-3.219c-2.193,0-3.902-0.689-5.127-2.066c-1.22-1.385-1.829-2.941-1.829-4.67
	c0-1.318,0.313-2.62,0.944-3.905c0.637-1.292,1.574-2.355,2.813-3.189c1.245-0.835,2.725-1.252,4.441-1.252
	c2.06,0,3.739,0.629,5.038,1.888c1.305,1.251,1.956,2.811,1.956,4.68c0,1.868-0.516,3.59-1.549,5.167
	C227.26,21.371,225.757,22.397,223.776,22.882z M222.783,22.394c1.007,0,2.001-0.269,2.981-0.804
	c0.98-0.543,1.752-1.289,2.313-2.236c0.564-0.946,0.846-1.92,0.846-2.921c0-1.451-0.395-2.762-1.181-3.935
	c-0.783-1.18-1.777-2.083-2.983-2.713c-1.205-0.63-2.297-0.944-3.279-0.944c-1.45,0-2.768,0.547-3.954,1.64
	c-1.179,1.093-1.768,2.451-1.768,4.074c0,2.061,0.719,3.882,2.156,5.465C219.359,21.603,220.981,22.394,222.783,22.394z"/>
<path fill="none" stroke="#FFFFFF" stroke-width="0.908" stroke-miterlimit="10.248" d="M223.776,22.882
	c0.008,0.02,0.108,0.092,0.299,0.218l1.541,1.093c0.84,0.596,1.619,1.081,2.333,1.451c0.724,0.376,1.44,0.668,2.157,0.874
	c0.715,0.206,1.428,0.308,2.137,0.308c0.271,0,0.652-0.033,1.143-0.099l0.021,0.119c-0.419,0.199-0.915,0.365-1.492,0.497
	c-0.575,0.131-1.01,0.199-1.3,0.199c-1.062,0-2.448-0.392-4.164-1.174c-1.716-0.78-3.333-1.854-4.849-3.219
	c-2.193,0-3.902-0.689-5.127-2.066c-1.22-1.385-1.829-2.941-1.829-4.67c0-1.318,0.313-2.62,0.944-3.905
	c0.637-1.292,1.574-2.355,2.813-3.189c1.245-0.835,2.725-1.252,4.441-1.252c2.06,0,3.739,0.629,5.038,1.888
	c1.305,1.251,1.956,2.811,1.956,4.68c0,1.868-0.516,3.59-1.549,5.167C227.26,21.371,225.757,22.397,223.776,22.882z M222.783,22.394
	c1.007,0,2.001-0.269,2.981-0.804c0.98-0.543,1.752-1.289,2.313-2.236c0.564-0.946,0.846-1.92,0.846-2.921
	c0-1.451-0.395-2.762-1.181-3.935c-0.783-1.18-1.777-2.083-2.983-2.713c-1.205-0.63-2.297-0.944-3.279-0.944
	c-1.45,0-2.768,0.547-3.954,1.64c-1.179,1.093-1.768,2.451-1.768,4.074c0,2.061,0.719,3.882,2.156,5.465
	C219.359,21.603,220.981,22.394,222.783,22.394z"/>
<path fill="#FFFFFF" d="M247.628,22.92h-2.763v-2.255c-1.413,1.57-3.094,2.355-5.048,2.355c-1.452,0-2.604-0.407-3.458-1.223
	c-0.848-0.814-1.271-1.941-1.271-3.378V9.655c0-0.529-0.063-0.864-0.189-1.003c-0.126-0.146-0.42-0.218-0.885-0.218V8.285h3.885
	v0.149c-0.41,0-0.701,0.066-0.873,0.199c-0.165,0.125-0.248,0.43-0.248,0.914v8.038c0,1.683,0.393,2.885,1.181,3.607
	c0.789,0.715,1.688,1.074,2.693,1.074c1.584,0,2.988-0.712,4.214-2.137v-9.907c0-0.868-0.077-1.381-0.229-1.54
	c-0.154-0.166-0.392-0.248-0.717-0.248h-0.138V8.285h3.846v0.149c-0.478,0.026-0.778,0.105-0.906,0.238
	c-0.119,0.133-0.178,0.385-0.178,0.755v11.924c0,0.47,0.022,0.777,0.068,0.924c0.046,0.145,0.14,0.267,0.278,0.367
	c0.146,0.092,0.393,0.139,0.737,0.139V22.92z"/>
<path fill="none" stroke="#FFFFFF" stroke-width="0.908" stroke-miterlimit="10.248" d="M247.628,22.92h-2.763v-2.255
	c-1.413,1.57-3.094,2.355-5.048,2.355c-1.452,0-2.604-0.407-3.458-1.223c-0.848-0.814-1.271-1.941-1.271-3.378V9.655
	c0-0.529-0.063-0.864-0.189-1.003c-0.126-0.146-0.42-0.218-0.885-0.218V8.285h3.885v0.149c-0.41,0-0.701,0.066-0.873,0.199
	c-0.165,0.125-0.248,0.43-0.248,0.914v8.038c0,1.683,0.393,2.885,1.181,3.607c0.789,0.715,1.688,1.074,2.693,1.074
	c1.584,0,2.988-0.712,4.214-2.137v-9.907c0-0.868-0.077-1.381-0.229-1.54c-0.154-0.166-0.392-0.248-0.717-0.248h-0.138V8.285h3.846
	v0.149c-0.478,0.026-0.778,0.105-0.906,0.238c-0.119,0.133-0.178,0.385-0.178,0.755v11.924c0,0.47,0.022,0.777,0.068,0.924
	c0.046,0.145,0.14,0.267,0.278,0.367c0.146,0.092,0.393,0.139,0.737,0.139V22.92z"/>
<path fill="#FFFFFF" d="M259.406,16.184h-4.272l-2.217,5.535c-0.151,0.397-0.228,0.642-0.228,0.735c0,0.218,0.162,0.327,0.486,0.327
	v0.14H251v-0.14c0.291,0,0.537-0.068,0.735-0.208c0.199-0.146,0.417-0.517,0.656-1.113l5.306-13.395h0.248l5.226,12.937
	c0,0.066,0.134,0.382,0.398,0.944c0.271,0.556,0.683,0.834,1.231,0.834v0.14h-3.418v-0.14c0.313,0,0.469-0.121,0.469-0.367
	c0-0.165-0.078-0.43-0.229-0.795c-0.026-0.027-0.051-0.069-0.069-0.129c-0.014-0.066-0.022-0.099-0.03-0.099L259.406,16.184z
	 M255.272,15.777h3.954l-1.977-4.988L255.272,15.777z"/>
<path fill="none" stroke="#FFFFFF" stroke-width="0.908" stroke-miterlimit="10.248" d="M259.406,16.184h-4.272l-2.217,5.535
	c-0.151,0.397-0.228,0.642-0.228,0.735c0,0.218,0.162,0.327,0.486,0.327v0.14H251v-0.14c0.291,0,0.537-0.068,0.735-0.208
	c0.199-0.146,0.417-0.517,0.656-1.113l5.306-13.395h0.248l5.226,12.937c0,0.066,0.134,0.382,0.398,0.944
	c0.271,0.556,0.683,0.834,1.231,0.834v0.14h-3.418v-0.14c0.313,0,0.469-0.121,0.469-0.367c0-0.165-0.078-0.43-0.229-0.795
	c-0.026-0.027-0.051-0.069-0.069-0.129c-0.014-0.066-0.022-0.099-0.03-0.099L259.406,16.184z M255.272,15.777h3.954l-1.977-4.988
	L255.272,15.777z"/>
<path fill="#FFFFFF" d="M268.133,8.435v-0.15h4.153c1.054,0,1.814,0.023,2.284,0.069c0.471,0.046,0.951,0.202,1.442,0.468
	c0.496,0.258,0.871,0.612,1.121,1.063c0.252,0.443,0.378,0.99,0.378,1.639c0,0.742-0.224,1.451-0.675,2.126
	c-0.444,0.668-1.073,1.235-1.888,1.699l1.033,1.59c0.226,0.398,0.821,1.269,1.787,2.614c0.975,1.344,1.727,2.166,2.257,2.464
	c0.53,0.292,1.043,0.438,1.54,0.438c0.49,0,1.054-0.189,1.688-0.565l0.061,0.197c-0.796,0.65-1.829,0.974-3.101,0.974
	c-0.849,0-1.576-0.248-2.186-0.745c-0.609-0.503-1.67-1.881-3.181-4.134c-0.011-0.012-0.019-0.027-0.019-0.04l-1.471-2.265
	l-1.301,0.04h-1.183v5.604c0,0.45,0.059,0.775,0.178,0.973c0.119,0.192,0.407,0.288,0.865,0.288v0.139h-3.786v-0.139
	c0.47-0.02,0.761-0.119,0.874-0.298c0.12-0.179,0.179-0.543,0.179-1.092V9.755c0-0.378-0.049-0.689-0.148-0.934
	C268.937,8.569,268.636,8.44,268.133,8.435z M270.876,8.672v6.866h1.529c1.205,0,2.1-0.284,2.683-0.854
	c0.582-0.57,0.875-1.318,0.875-2.245c0-0.9-0.29-1.753-0.864-2.554c-0.571-0.809-1.577-1.212-3.021-1.212H270.876z"/>
<path fill="none" stroke="#FFFFFF" stroke-width="0.908" stroke-miterlimit="10.248" d="M268.133,8.435v-0.15h4.153
	c1.054,0,1.814,0.023,2.284,0.069c0.471,0.046,0.951,0.202,1.442,0.468c0.496,0.258,0.871,0.612,1.121,1.063
	c0.252,0.443,0.378,0.99,0.378,1.639c0,0.742-0.224,1.451-0.675,2.126c-0.444,0.668-1.073,1.235-1.888,1.699l1.033,1.59
	c0.226,0.398,0.821,1.269,1.787,2.614c0.975,1.344,1.727,2.166,2.257,2.464c0.53,0.292,1.043,0.438,1.54,0.438
	c0.49,0,1.054-0.189,1.688-0.565l0.061,0.197c-0.796,0.65-1.829,0.974-3.101,0.974c-0.849,0-1.576-0.248-2.186-0.745
	c-0.609-0.503-1.67-1.881-3.181-4.134c-0.011-0.012-0.019-0.027-0.019-0.04l-1.471-2.265l-1.301,0.04h-1.183v5.604
	c0,0.45,0.059,0.775,0.178,0.973c0.119,0.192,0.407,0.288,0.865,0.288v0.139h-3.786v-0.139c0.47-0.02,0.761-0.119,0.874-0.298
	c0.12-0.179,0.179-0.543,0.179-1.092V9.755c0-0.378-0.049-0.689-0.148-0.934C268.937,8.569,268.636,8.44,268.133,8.435z
	 M270.876,8.672v6.866h1.529c1.205,0,2.1-0.284,2.683-0.854c0.582-0.57,0.875-1.318,0.875-2.245c0-0.9-0.29-1.753-0.864-2.554
	c-0.571-0.809-1.577-1.212-3.021-1.212H270.876z"/>
<path fill="#FFFFFF" d="M286.687,8.453V8.285h9.202v2.017h-0.149c-0.198-0.748-0.367-1.189-0.508-1.322
	c-0.133-0.132-0.463-0.198-0.993-0.198h-4.828v6.567h4.481c0.443,0,0.724-0.039,0.843-0.119c0.12-0.085,0.183-0.208,0.189-0.368
	h0.15v1.382h-0.15c-0.033-0.193-0.112-0.321-0.238-0.388c-0.119-0.065-0.344-0.099-0.675-0.099h-4.601v4.521
	c0,0.682,0.063,1.176,0.188,1.479c0.125,0.299,0.324,0.488,0.597,0.567c0.278,0.073,0.693,0.109,1.251,0.109h2.585
	c0.82,0,1.344-0.026,1.569-0.079c0.231-0.06,0.427-0.172,0.586-0.338c0.157-0.172,0.281-0.543,0.367-1.113h0.139v2.017h-10.006
	v-0.139c0.338-0.02,0.594-0.083,0.766-0.188c0.179-0.113,0.27-0.398,0.27-0.854V9.915c0-0.537-0.048-0.914-0.14-1.132
	c-0.093-0.219-0.385-0.33-0.889-0.329H286.687z"/>
<path fill="none" stroke="#FFFFFF" stroke-width="0.908" stroke-miterlimit="10.248" d="M286.687,8.453V8.285h9.202v2.017h-0.149
	c-0.198-0.748-0.367-1.189-0.508-1.322c-0.133-0.132-0.463-0.198-0.993-0.198h-4.828v6.567h4.481c0.443,0,0.724-0.039,0.843-0.119
	c0.12-0.085,0.183-0.208,0.189-0.368h0.15v1.382h-0.15c-0.033-0.193-0.112-0.321-0.238-0.388c-0.119-0.065-0.344-0.099-0.675-0.099
	h-4.601v4.521c0,0.682,0.063,1.176,0.188,1.479c0.125,0.299,0.324,0.488,0.597,0.567c0.278,0.073,0.693,0.109,1.251,0.109h2.585
	c0.82,0,1.344-0.026,1.569-0.079c0.231-0.06,0.427-0.172,0.586-0.338c0.157-0.172,0.281-0.543,0.367-1.113h0.139v2.017h-10.006
	v-0.139c0.338-0.02,0.594-0.083,0.766-0.188c0.179-0.113,0.27-0.398,0.27-0.854V9.915c0-0.537-0.048-0.914-0.14-1.132
	c-0.093-0.219-0.385-0.33-0.889-0.329H286.687z"/>
<path fill="#FFFFFF" d="M111.818,48.395l0.212,0.157c-0.219,0.327-0.439,0.561-0.661,0.702c-0.219,0.145-0.51,0.219-0.874,0.219
	c-0.391,0-0.712-0.117-0.962-0.349c-0.254-0.227-0.443-0.627-0.565-1.2l-0.32-1.433c-0.114-0.496-0.221-0.877-0.32-1.146
	c-0.099-0.269-0.25-0.484-0.451-0.648c-0.2-0.159-0.482-0.238-0.846-0.238h-1.358v3.294c0,0.359,0.028,0.621,0.083,0.785
	c0.059,0.163,0.166,0.272,0.321,0.327c0.158,0.058,0.41,0.097,0.757,0.114v0.287c-0.442-0.028-1.049-0.042-1.822-0.042
	c-0.822,0-1.434,0.014-1.834,0.042v-0.287c0.345-0.018,0.596-0.056,0.75-0.114c0.159-0.054,0.269-0.163,0.328-0.327
	c0.053-0.165,0.081-0.426,0.081-0.785v-7.107c0-0.364-0.027-0.626-0.081-0.785c-0.059-0.165-0.168-0.275-0.328-0.334
	c-0.154-0.054-0.405-0.092-0.75-0.115v-0.287c0.4,0.032,0.982,0.047,1.746,0.047l1.548-0.018c0.183-0.012,0.39-0.017,0.622-0.017
	c1.105,0,1.955,0.229,2.552,0.688c0.6,0.465,0.9,1.065,0.9,1.802c0,0.373-0.089,0.747-0.266,1.125
	c-0.178,0.377-0.473,0.716-0.887,1.016c-0.417,0.3-0.962,0.502-1.629,0.606l0.17,0.027c0.632,0.104,1.091,0.295,1.378,0.573
	c0.286,0.277,0.497,0.719,0.627,1.324l0.361,1.459c0.095,0.438,0.194,0.742,0.3,0.915c0.105,0.172,0.249,0.259,0.43,0.259
	c0.164,0,0.3-0.043,0.409-0.129c0.11-0.086,0.238-0.226,0.382-0.416L111.818,48.395z M106.729,39.412L106.729,39.412
	c-0.295,0-0.518,0.033-0.668,0.102c-0.146,0.068-0.249,0.188-0.308,0.362c-0.054,0.167-0.08,0.424-0.08,0.77v3.526h0.955
	c0.946,0,1.596-0.211,1.951-0.634c0.354-0.419,0.532-1,0.532-1.747c0-0.783-0.187-1.373-0.56-1.773
	c-0.373-0.405-0.979-0.607-1.821-0.607H106.729z M127.01,47.576L127.01,47.576c0,0.5,0.034,1.064,0.103,1.691
	c-0.624-0.027-1.67-0.041-3.138-0.041c-1.77,0-3.106,0.013-4.011,0.041v-0.287c0.346-0.017,0.597-0.056,0.751-0.115
	c0.159-0.054,0.268-0.163,0.327-0.327c0.054-0.164,0.082-0.426,0.082-0.785v-5.675c0-0.364-0.027-0.625-0.082-0.785
	c-0.058-0.165-0.167-0.274-0.327-0.333c-0.154-0.054-0.405-0.094-0.751-0.117v-0.287c0.905,0.032,2.242,0.047,4.011,0.047
	c1.336,0,2.288-0.015,2.852-0.047c-0.069,0.573-0.103,1.09-0.103,1.549c0,0.374,0.017,0.669,0.049,0.887h-0.335
	c-0.063-0.782-0.227-1.327-0.49-1.636c-0.264-0.309-0.691-0.464-1.282-0.464h-1.05c-0.341,0-0.592,0.024-0.751,0.075
	c-0.155,0.054-0.261,0.163-0.32,0.327c-0.059,0.159-0.088,0.42-0.088,0.785v2.667h1.194c0.304,0,0.539-0.08,0.702-0.239
	c0.159-0.159,0.268-0.332,0.327-0.519c0.054-0.187,0.107-0.423,0.158-0.709h0.328c-0.028,0.328-0.043,0.682-0.043,1.064v0.546
	c0,0.373,0.03,0.907,0.088,1.602h-0.333c-0.056-0.458-0.166-0.818-0.328-1.077c-0.164-0.254-0.464-0.382-0.901-0.382h-1.194v2.722
	c0,0.359,0.03,0.621,0.09,0.784c0.059,0.165,0.166,0.271,0.32,0.322c0.159,0.053,0.409,0.08,0.75,0.08h1.051
	c0.478,0,0.854-0.076,1.132-0.232c0.277-0.149,0.486-0.395,0.627-0.737c0.145-0.336,0.245-0.812,0.3-1.425h0.334
	C127.026,46.805,127.01,47.148,127.01,47.576z M143.265,48.067L143.265,48.067c0.259,0.591,0.589,0.896,0.989,0.914v0.287
	c-0.382-0.027-0.892-0.041-1.528-0.041c-0.824,0-1.435,0.013-1.835,0.041v-0.287c0.35-0.017,0.609-0.065,0.777-0.142
	c0.168-0.076,0.252-0.204,0.252-0.382c0-0.154-0.066-0.379-0.198-0.675l-0.736-1.637h-3.48l-0.484,1.078
	c-0.164,0.373-0.246,0.678-0.246,0.914c0,0.25,0.088,0.443,0.267,0.58c0.177,0.141,0.461,0.229,0.852,0.266v0.286
	c-0.287-0.027-0.721-0.041-1.303-0.041c-0.582,0-0.998,0.014-1.248,0.041v-0.286c0.259-0.063,0.48-0.208,0.662-0.437
	c0.181-0.223,0.353-0.52,0.512-0.894l3.165-7.162h0.232L143.265,48.067z M137.624,45.858h3.252l-1.623-3.637L137.624,45.858z
	 M155.972,40.557v0.287c-0.344,0.023-0.597,0.061-0.756,0.115c-0.155,0.059-0.261,0.169-0.321,0.334
	c-0.053,0.159-0.08,0.42-0.08,0.785v5.675c0,0.359,0.027,0.621,0.08,0.784c0.059,0.165,0.167,0.271,0.321,0.322
	c0.16,0.053,0.413,0.08,0.756,0.08h0.901c0.658,0,1.173-0.195,1.542-0.586c0.368-0.391,0.589-1.041,0.661-1.951h0.334
	c-0.032,0.296-0.049,0.687-0.049,1.174c0,0.5,0.035,1.064,0.103,1.692c-0.622-0.028-1.669-0.042-3.138-0.042
	c-1.765,0-3.102,0.014-4.011,0.042v-0.287c0.346-0.018,0.595-0.056,0.75-0.114c0.159-0.054,0.268-0.163,0.327-0.327
	c0.054-0.165,0.081-0.426,0.081-0.785v-5.675c0-0.364-0.027-0.625-0.081-0.785c-0.059-0.165-0.168-0.274-0.327-0.334
	c-0.155-0.054-0.405-0.092-0.75-0.115v-0.286c0.4,0.031,1.012,0.046,1.835,0.046c0.764,0,1.371-0.015,1.821-0.046V40.557z
	 M186.436,47.433L186.436,47.433c0,0.545,0.033,1.158,0.096,1.835c-0.65-0.027-1.744-0.041-3.28-0.041
	c-1.834,0-3.218,0.014-4.155,0.041v-0.287c0.346-0.017,0.599-0.056,0.758-0.115c0.155-0.054,0.261-0.163,0.32-0.327
	c0.054-0.164,0.081-0.426,0.081-0.785v-7.107c0-0.365-0.027-0.625-0.081-0.785c-0.058-0.163-0.165-0.274-0.32-0.334
	c-0.159-0.053-0.412-0.091-0.758-0.115v-0.286c0.938,0.031,2.321,0.046,4.155,0.046c1.404,0,2.402-0.016,2.995-0.046
	c-0.063,0.631-0.096,1.196-0.096,1.692c0,0.373,0.014,0.668,0.043,0.886h-0.334c-0.063-0.618-0.147-1.078-0.252-1.378
	c-0.105-0.299-0.283-0.519-0.532-0.662c-0.251-0.136-0.628-0.204-1.132-0.204h-1.188c-0.347,0-0.596,0.026-0.751,0.075
	c-0.159,0.054-0.268,0.163-0.326,0.328c-0.055,0.16-0.084,0.421-0.084,0.785v3.383h0.942c0.337,0,0.596-0.08,0.778-0.239
	c0.182-0.159,0.302-0.346,0.361-0.56c0.063-0.213,0.112-0.483,0.148-0.811l0.049-0.286h0.327c-0.029,0.404-0.043,0.854-0.043,1.351
	v0.689c0,0.486,0.027,1.164,0.081,2.032h-0.328c-0.011-0.068-0.041-0.3-0.087-0.696c-0.048-0.395-0.177-0.692-0.39-0.893
	c-0.219-0.201-0.52-0.301-0.9-0.301h-0.941v3.438c0,0.36,0.026,0.622,0.08,0.786c0.06,0.163,0.169,0.27,0.328,0.319
	c0.154,0.054,0.404,0.081,0.751,0.081h1.043c0.593,0,1.045-0.079,1.357-0.239c0.31-0.155,0.535-0.407,0.676-0.756
	c0.146-0.351,0.252-0.865,0.319-1.542h0.328c-0.028,0.259-0.043,0.603-0.043,1.03L186.436,47.433z M198.395,40.359L198.395,40.359
	c0.419,0,0.75,0.045,0.996,0.137c0.241,0.092,0.492,0.224,0.75,0.396c0.209,0.131,0.37,0.197,0.484,0.197
	c0.086,0,0.153-0.05,0.205-0.151c0.047-0.1,0.083-0.258,0.109-0.478h0.334c-0.051,0.496-0.075,1.373-0.075,2.634h-0.326
	c-0.061-0.687-0.282-1.269-0.67-1.747c-0.387-0.478-0.946-0.716-1.679-0.716c-0.508,0-0.927,0.134-1.254,0.402
	c-0.331,0.269-0.498,0.607-0.498,1.017c0,0.295,0.075,0.552,0.225,0.77c0.146,0.223,0.337,0.412,0.573,0.567
	c0.232,0.159,0.563,0.353,0.995,0.58l0.473,0.258c0.591,0.315,1.066,0.597,1.425,0.847c0.359,0.251,0.649,0.535,0.867,0.853
	c0.218,0.318,0.326,0.689,0.326,1.112c0,0.772-0.276,1.371-0.832,1.793c-0.558,0.428-1.259,0.642-2.102,0.642
	c-0.459,0-0.834-0.047-1.125-0.145c-0.291-0.094-0.57-0.224-0.839-0.389c-0.209-0.132-0.371-0.198-0.484-0.198
	c-0.087,0-0.156,0.05-0.205,0.15c-0.047,0.1-0.083,0.258-0.11,0.478h-0.332c0.041-0.468,0.063-1.52,0.063-3.151h0.327
	c0.068,0.887,0.309,1.603,0.717,2.149c0.408,0.545,1.039,0.819,1.889,0.819c0.479,0,0.892-0.137,1.241-0.41
	c0.346-0.274,0.52-0.678,0.52-1.215c0-0.313-0.089-0.594-0.267-0.838c-0.183-0.241-0.428-0.458-0.737-0.648
	c-0.304-0.191-0.728-0.429-1.267-0.715c-0.788-0.401-1.386-0.801-1.796-1.201c-0.409-0.405-0.613-0.925-0.613-1.562
	c0-0.709,0.259-1.26,0.778-1.652c0.521-0.39,1.162-0.585,1.916-0.585L198.395,40.359z M218.443,40.557L218.443,40.557
	c-0.063,0.632-0.095,1.197-0.095,1.692c0,0.496,0.014,0.887,0.043,1.173h-0.326c-0.059-0.668-0.15-1.177-0.274-1.528
	c-0.127-0.354-0.329-0.611-0.605-0.771c-0.274-0.154-0.668-0.231-1.188-0.231h-0.914v6.719c0,0.4,0.037,0.691,0.116,0.874
	c0.071,0.182,0.203,0.305,0.396,0.367c0.19,0.069,0.503,0.112,0.935,0.129v0.287c-0.498-0.028-1.198-0.041-2.108-0.041
	c-0.955,0-1.663,0.013-2.12,0.041v-0.287c0.43-0.017,0.742-0.06,0.935-0.129c0.189-0.063,0.324-0.185,0.401-0.367
	c0.071-0.182,0.107-0.474,0.107-0.874v-6.719h-0.913c-0.515,0-0.91,0.077-1.187,0.231c-0.278,0.16-0.479,0.417-0.601,0.771
	c-0.128,0.351-0.22,0.859-0.272,1.528h-0.335c0.031-0.305,0.048-0.696,0.048-1.173c0-0.495-0.034-1.06-0.103-1.692
	c0.792,0.032,2.139,0.047,4.039,0.047c1.892,0,3.233-0.015,4.024-0.047H218.443z M234.317,48.067L234.317,48.067
	c0.254,0.592,0.583,0.896,0.987,0.914v0.287c-0.381-0.027-0.893-0.041-1.535-0.041c-0.822,0-1.433,0.014-1.833,0.041v-0.287
	c0.354-0.017,0.613-0.066,0.777-0.144c0.167-0.076,0.252-0.204,0.252-0.38c0-0.156-0.066-0.381-0.198-0.677l-0.73-1.637h-3.484
	l-0.484,1.078c-0.163,0.373-0.247,0.678-0.247,0.914c0,0.25,0.089,0.443,0.267,0.58c0.177,0.141,0.462,0.23,0.854,0.266v0.287
	c-0.287-0.027-0.722-0.041-1.304-0.041c-0.581,0-0.997,0.013-1.248,0.041v-0.287c0.258-0.063,0.479-0.208,0.662-0.436
	c0.183-0.223,0.354-0.521,0.518-0.894l3.166-7.162h0.226L234.317,48.067z M228.668,45.858h3.254l-1.617-3.636L228.668,45.858z
	 M251.315,40.557L251.315,40.557c-0.067,0.632-0.103,1.197-0.103,1.693s0.016,0.886,0.049,1.172h-0.335
	c-0.055-0.668-0.145-1.177-0.272-1.527c-0.123-0.355-0.322-0.612-0.601-0.772c-0.276-0.154-0.674-0.231-1.187-0.231h-0.921v6.719
	c0,0.4,0.038,0.691,0.115,0.874s0.211,0.305,0.402,0.367c0.19,0.069,0.502,0.112,0.935,0.129v0.287
	c-0.5-0.028-1.202-0.041-2.108-0.041c-0.954,0-1.661,0.013-2.121,0.041v-0.287c0.432-0.017,0.742-0.06,0.935-0.129
	c0.19-0.063,0.322-0.185,0.396-0.367c0.076-0.182,0.114-0.474,0.114-0.874v-6.719H245.7c-0.519,0-0.917,0.077-1.195,0.231
	c-0.271,0.16-0.471,0.417-0.599,0.772c-0.123,0.35-0.215,0.859-0.273,1.527h-0.327c0.028-0.304,0.043-0.695,0.043-1.172
	c0-0.496-0.031-1.061-0.095-1.693c0.791,0.032,2.138,0.047,4.038,0.047C249.183,40.604,250.525,40.589,251.315,40.557
	L251.315,40.557z M266.957,47.577L266.957,47.577c0,0.5,0.031,1.064,0.094,1.691c-0.617-0.027-1.662-0.041-3.13-0.041
	c-1.771,0-3.106,0.014-4.012,0.041v-0.286c0.341-0.018,0.592-0.058,0.751-0.115c0.154-0.055,0.263-0.164,0.321-0.328
	c0.057-0.163,0.087-0.425,0.087-0.784V42.08c0-0.364-0.03-0.625-0.087-0.785c-0.059-0.164-0.165-0.275-0.321-0.334
	c-0.159-0.054-0.41-0.092-0.751-0.115V40.56c0.905,0.031,2.241,0.046,4.012,0.046c1.337,0,2.285-0.015,2.844-0.046
	c-0.063,0.573-0.095,1.089-0.095,1.548c0,0.373,0.015,0.669,0.043,0.887h-0.327c-0.068-0.782-0.234-1.329-0.498-1.638
	c-0.26-0.309-0.687-0.464-1.281-0.464h-1.045c-0.346,0-0.597,0.026-0.75,0.076c-0.16,0.054-0.267,0.164-0.321,0.328
	c-0.059,0.159-0.087,0.421-0.087,0.784v2.668h1.186c0.307,0,0.54-0.08,0.703-0.24c0.163-0.159,0.273-0.332,0.328-0.519
	c0.058-0.185,0.113-0.422,0.164-0.708h0.328c-0.029,0.327-0.043,0.682-0.043,1.064v0.545c0,0.374,0.027,0.908,0.081,1.604h-0.326
	c-0.061-0.46-0.171-0.819-0.329-1.078c-0.163-0.254-0.465-0.382-0.906-0.382H262.4v2.722c0,0.359,0.03,0.621,0.089,0.785
	c0.055,0.163,0.16,0.27,0.32,0.319c0.154,0.054,0.404,0.082,0.75,0.082h1.044c0.479,0,0.855-0.078,1.132-0.232
	c0.278-0.149,0.49-0.395,0.635-0.737c0.143-0.335,0.241-0.812,0.3-1.425h0.328c-0.03,0.259-0.043,0.602-0.043,1.03L266.957,47.577z"
	/>
</svg>
