<?xml version="1.0" encoding="UTF-8" standalone="no"?>
<svg width="20" height="20" viewBox="0 0 20 20" fill="none" xmlns="http://www.w3.org/2000/svg">
  <path d="M1 0H0V1H1V0Z" fill="white"/>
  <path d="M3 0H2V1H3V0Z" fill="white"/>
  <path d="M5 0H4V1H5V0Z" fill="white"/>
  <path d="M7 0H6V1H7V0Z" fill="white"/>
  <path d="M9 0H8V1H9V0Z" fill="white"/>
  <path d="M11 0H10V1H11V0Z" fill="white"/>
  <path d="M13 0H12V1H13V0Z" fill="white"/>
  <path d="M15 0H14V1H15V0Z" fill="white"/>
  <path d="M17 0H16V1H17V0Z" fill="white"/>
  <path d="M19 0H18V1H19V0Z" fill="white"/>
  <path d="M1 2H0V3H1V2Z" fill="white"/>
  <path d="M3 2H2V3H3V2Z" fill="white"/>
  <path d="M5 2H4V3H5V2Z" fill="white"/>
  <path d="M7 2H6V3H7V2Z" fill="white"/>
  <path d="M9 2H8V3H9V2Z" fill="white"/>
  <path d="M11 2H10V3H11V2Z" fill="white"/>
  <path d="M13 2H12V3H13V2Z" fill="white"/>
  <path d="M15 2H14V3H15V2Z" fill="white"/>
  <path d="M17 2H16V3H17V2Z" fill="white"/>
  <path d="M19 2H18V3H19V2Z" fill="white"/>
  <path d="M1 4H0V5H1V4Z" fill="white"/>
  <path d="M3 4H2V5H3V4Z" fill="white"/>
  <path d="M5 4H4V5H5V4Z" fill="white"/>
  <path d="M7 4H6V5H7V4Z" fill="white"/>
  <path d="M9 4H8V5H9V4Z" fill="white"/>
  <path d="M11 4H10V5H11V4Z" fill="white"/>
  <path d="M13 4H12V5H13V4Z" fill="white"/>
  <path d="M15 4H14V5H15V4Z" fill="white"/>
  <path d="M17 4H16V5H17V4Z" fill="white"/>
  <path d="M19 4H18V5H19V4Z" fill="white"/>
  <path d="M1 6H0V7H1V6Z" fill="white"/>
  <path d="M3 6H2V7H3V6Z" fill="white"/>
  <path d="M5 6H4V7H5V6Z" fill="white"/>
  <path d="M7 6H6V7H7V6Z" fill="white"/>
  <path d="M9 6H8V7H9V6Z" fill="white"/>
  <path d="M11 6H10V7H11V6Z" fill="white"/>
  <path d="M13 6H12V7H13V6Z" fill="white"/>
  <path d="M15 6H14V7H15V6Z" fill="white"/>
  <path d="M17 6H16V7H17V6Z" fill="white"/>
  <path d="M19 6H18V7H19V6Z" fill="white"/>
  <path d="M1 8H0V9H1V8Z" fill="white"/>
  <path d="M3 8H2V9H3V8Z" fill="white"/>
  <path d="M5 8H4V9H5V8Z" fill="white"/>
  <path d="M7 8H6V9H7V8Z" fill="white"/>
  <path d="M9 8H8V9H9V8Z" fill="white"/>
  <path d="M11 8H10V9H11V8Z" fill="white"/>
  <path d="M13 8H12V9H13V8Z" fill="white"/>
  <path d="M15 8H14V9H15V8Z" fill="white"/>
  <path d="M17 8H16V9H17V8Z" fill="white"/>
  <path d="M19 8H18V9H19V8Z" fill="white"/>
  <path d="M1 10H0V11H1V10Z" fill="white"/>
  <path d="M3 10H2V11H3V10Z" fill="white"/>
  <path d="M5 10H4V11H5V10Z" fill="white"/>
  <path d="M7 10H6V11H7V10Z" fill="white"/>
  <path d="M9 10H8V11H9V10Z" fill="white"/>
  <path d="M11 10H10V11H11V10Z" fill="white"/>
  <path d="M13 10H12V11H13V10Z" fill="white"/>
  <path d="M15 10H14V11H15V10Z" fill="white"/>
  <path d="M17 10H16V11H17V10Z" fill="white"/>
  <path d="M19 10H18V11H19V10Z" fill="white"/>
  <path d="M1 12H0V13H1V12Z" fill="white"/>
  <path d="M3 12H2V13H3V12Z" fill="white"/>
  <path d="M5 12H4V13H5V12Z" fill="white"/>
  <path d="M7 12H6V13H7V12Z" fill="white"/>
  <path d="M9 12H8V13H9V12Z" fill="white"/>
  <path d="M11 12H10V13H11V12Z" fill="white"/>
  <path d="M13 12H12V13H13V12Z" fill="white"/>
  <path d="M15 12H14V13H15V12Z" fill="white"/>
  <path d="M17 12H16V13H17V12Z" fill="white"/>
  <path d="M19 12H18V13H19V12Z" fill="white"/>
  <path d="M1 14H0V15H1V14Z" fill="white"/>
  <path d="M3 14H2V15H3V14Z" fill="white"/>
  <path d="M5 14H4V15H5V14Z" fill="white"/>
  <path d="M7 14H6V15H7V14Z" fill="white"/>
  <path d="M9 14H8V15H9V14Z" fill="white"/>
  <path d="M11 14H10V15H11V14Z" fill="white"/>
  <path d="M13 14H12V15H13V14Z" fill="white"/>
  <path d="M15 14H14V15H15V14Z" fill="white"/>
  <path d="M17 14H16V15H17V14Z" fill="white"/>
  <path d="M19 14H18V15H19V14Z" fill="white"/>
  <path d="M1 16H0V17H1V16Z" fill="white"/>
  <path d="M3 16H2V17H3V16Z" fill="white"/>
  <path d="M5 16H4V17H5V16Z" fill="white"/>
  <path d="M7 16H6V17H7V16Z" fill="white"/>
  <path d="M9 16H8V17H9V16Z" fill="white"/>
  <path d="M11 16H10V17H11V16Z" fill="white"/>
  <path d="M13 16H12V17H13V16Z" fill="white"/>
  <path d="M15 16H14V17H15V16Z" fill="white"/>
  <path d="M17 16H16V17H17V16Z" fill="white"/>
  <path d="M19 16H18V17H19V16Z" fill="white"/>
  <path d="M1 18H0V19H1V18Z" fill="white"/>
  <path d="M3 18H2V19H3V18Z" fill="white"/>
  <path d="M5 18H4V19H5V18Z" fill="white"/>
  <path d="M7 18H6V19H7V18Z" fill="white"/>
  <path d="M9 18H8V19H9V18Z" fill="white"/>
  <path d="M11 18H10V19H11V18Z" fill="white"/>
  <path d="M13 18H12V19H13V18Z" fill="white"/>
  <path d="M15 18H14V19H15V18Z" fill="white"/>
  <path d="M17 18H16V19H17V18Z" fill="white"/>
  <path d="M19 18H18V19H19V18Z" fill="white"/>
</svg>
